<svg width="400" height="400" viewBox="0 0 400 400" fill="none" xmlns="http://www.w3.org/2000/svg" role="img" aria-labelledby="title desc">
  <title id="title">Vessel Traffic MCP logo</title>
  <desc id="desc">A stylized vessel route with connected MCP nodes.</desc>
  <rect width="400" height="400" rx="72" fill="#0B1220"/>
  <path d="M88 262C134 218 176 216 212 235C250 255 291 251 326 209" stroke="#2DD4BF" stroke-width="16" stroke-linecap="round"/>
  <path d="M88 262C132 294 184 313 246 305C286 300 318 283 338 260" stroke="#F59E0B" stroke-width="10" stroke-linecap="round" opacity="0.95"/>
  <path d="M91 193L174 139C182 134 193 134 201 140L312 220C321 227 318 242 307 245L109 298C99 301 89 293 89 282V203C89 199 90 196 91 193Z" fill="#F8FAFC"/>
  <path d="M134 207L187 173C192 170 198 170 203 174L271 225L127 263V216C127 212 130 209 134 207Z" fill="#0F766E"/>
  <path d="M150 222L197 192L236 222L150 246V222Z" fill="#5EEAD4"/>
  <circle cx="88" cy="262" r="17" fill="#F59E0B" stroke="#F8FAFC" stroke-width="7"/>
  <circle cx="212" cy="235" r="15" fill="#2DD4BF" stroke="#F8FAFC" stroke-width="7"/>
  <circle cx="326" cy="209" r="17" fill="#F59E0B" stroke="#F8FAFC" stroke-width="7"/>
  <path d="M105 107H295" stroke="#334155" stroke-width="10" stroke-linecap="round"/>
  <path d="M132 91H268" stroke="#334155" stroke-width="10" stroke-linecap="round"/>
  <path d="M160 75H240" stroke="#334155" stroke-width="10" stroke-linecap="round"/>
</svg>
